<svg width="551" height="533" viewBox="0 0 551 533" fill="none" xmlns="http://www.w3.org/2000/svg">
<rect width="551" height="533" rx="49" fill="black"/>
<path d="M191.25 257.25V238.5H172.5V219.75H153.75V201H135V126H172.5V182.25H191.25V201H210V182.25H228.75V126H266.25V201H247.5V219.75H228.75V238.5H210V257.25H191.25Z" fill="white"/>
<path d="M303.75 257.25V238.5H285V182.25H303.75V163.5H397.5V182.25H416.25V238.5H397.5V257.25H303.75ZM322.5 238.5H378.75V182.25H322.5V238.5Z" fill="white"/>
<path d="M191.25 407.25V332.25H153.75V313.5H191.25V276H228.75V313.5H266.25V332.25H228.75V407.25H191.25Z" fill="white"/>
<path d="M303.75 407.25V388.5H285V369.75H303.75V351H378.75V332.25H303.75V313.5H397.5V332.25H416.25V407.25H303.75ZM322.5 388.5H378.75V369.75H322.5V388.5Z" fill="white"/>
</svg>
