<svg width="607" height="193" viewBox="0 0 607 193" fill="none" xmlns="http://www.w3.org/2000/svg">
<path d="M3 2H39L77.8636 137.389H79.0426L117.5 2H151L94.5 190H77H59L3 2Z" fill="#F7DF1E"/>
<path d="M237.591 2C262.153 2 281.114 5.28787 294.476 21.8637C308.034 38.2373 314.813 63 314.813 96.1516C314.813 129.101 308.034 153.864 294.476 170.439C281.114 186.813 262.153 190 237.591 190C213.03 190 193.97 186.813 180.412 170.439C167.051 153.864 160.37 129.101 160.37 96.1516C160.37 63.2021 167.051 38.4395 180.412 21.8637C193.97 5.28787 213.03 2 237.591 2ZM237.591 33C224.033 33 215.574 34.5842 208.5 45.5C201.623 56.2136 196.328 69.7718 196.328 89.1776V103.126C196.328 122.531 200.623 137.591 207.5 148.305C214.574 159.018 224.033 160 237.591 160C251.149 160 259.926 159.018 267 148.305C274.074 137.591 279.15 122.531 279.15 103.126V89.1776C279.15 69.7718 274.074 55.2136 267 44.5C259.926 33.5842 251.149 33 237.591 33Z" fill="#F7DF1E"/>
<path d="M409.399 32.173V190H374.914V32.173H328.935V2H455.673V32.173H409.399Z" fill="#F7DF1E"/>
<path d="M568.5 190L564.5 179.5L481.259 178L477.5 190H444L504 2H544L604 190.5L568.5 190ZM522.5 39C522 41 521.5 43 521 45C519.5 50.5 518.5 54.5 517.347 58.2496L489.5 148.305H525.599H555.5L529.136 58.2496C527.957 54.2067 526.778 49.3552 525.599 43.6952C524.5 39 525 41 524.5 39H522.5Z" fill="#F7DF1E"/>
<path d="M3 2H39L77.8636 137.389H79.0426L117.5 2H151L94.5 190H77H59L3 2Z" fill="#F7DF1E"/>
<path d="M237.591 2C262.153 2 281.114 5.28787 294.476 21.8637C308.034 38.2373 314.813 63 314.813 96.1516C314.813 129.101 308.034 153.864 294.476 170.439C281.114 186.813 262.153 190 237.591 190C213.03 190 193.97 186.813 180.412 170.439C167.051 153.864 160.37 129.101 160.37 96.1516C160.37 63.2021 167.051 38.4395 180.412 21.8637C193.97 5.28787 213.03 2 237.591 2ZM237.591 33C224.033 33 215.574 34.5842 208.5 45.5C201.623 56.2136 196.328 69.7718 196.328 89.1776V103.126C196.328 122.531 200.623 137.591 207.5 148.305C214.574 159.018 224.033 160 237.591 160C251.149 160 259.926 159.018 267 148.305C274.074 137.591 279.15 122.531 279.15 103.126V89.1776C279.15 69.7718 274.074 55.2136 267 44.5C259.926 33.5842 251.149 33 237.591 33Z" fill="#F7DF1E"/>
<path d="M409.399 32.173V190H374.914V32.173H328.935V2H455.673V32.173H409.399Z" fill="#F7DF1E"/>
<path d="M568.5 190L564.5 179.5L481.259 178L477.5 190H444L504 2H544L604 190.5L568.5 190ZM522.5 39C522 41 521.5 43 521 45C519.5 50.5 518.5 54.5 517.347 58.2496L489.5 148.305H525.599H555.5L529.136 58.2496C527.957 54.2067 526.778 49.3552 525.599 43.6952C524.5 39 525 41 524.5 39H522.5Z" fill="#F7DF1E"/>
<path d="M3 2V0H0.317413L1.08323 2.57095L3 2ZM39 2L40.9224 1.44818L40.5067 0H39V2ZM77.8636 137.389L75.9413 137.941L76.357 139.389H77.8636V137.389ZM79.0426 137.389V139.389H80.5536L80.9665 137.935L79.0426 137.389ZM117.5 2V0H115.989L115.576 1.45352L117.5 2ZM151 2L152.915 2.57563L153.689 0H151V2ZM94.5 190V192H95.9873L96.4154 190.576L94.5 190ZM59 190L57.0832 190.571L57.5089 192H59V190ZM294.476 21.8637L292.919 23.1188L292.927 23.1291L292.936 23.1392L294.476 21.8637ZM294.476 170.439L292.928 169.173L292.926 169.175L294.476 170.439ZM180.412 170.439L178.855 171.695L178.863 171.705L178.872 171.715L180.412 170.439ZM180.412 21.8637L178.864 20.5974L178.859 20.603L178.855 20.6085L180.412 21.8637ZM208.5 45.5L206.822 44.4123L206.817 44.4196L208.5 45.5ZM207.5 148.305L205.817 149.385L205.824 149.396L205.831 149.407L207.5 148.305ZM267 148.305L268.669 149.407L268.669 149.407L267 148.305ZM267 44.5L265.322 45.5876L265.326 45.5948L265.331 45.602L267 44.5ZM409.399 32.173V30.173H407.399V32.173H409.399ZM409.399 190V192H411.399V190H409.399ZM374.914 190H372.914V192H374.914V190ZM374.914 32.173H376.914V30.173H374.914V32.173ZM328.935 32.173H326.935V34.173H328.935V32.173ZM328.935 2V0H326.935V2H328.935ZM455.673 2H457.673V0H455.673V2ZM455.673 32.173V34.173H457.673V32.173H455.673ZM568.5 190L566.631 190.712L567.114 191.981L568.472 192L568.5 190ZM564.5 179.5L566.369 178.788L565.888 177.525L564.536 177.5L564.5 179.5ZM481.259 178L481.295 176L479.798 175.973L479.351 177.402L481.259 178ZM477.5 190V192H478.969L479.409 190.598L477.5 190ZM444 190L442.095 189.392L441.262 192H444V190ZM504 2V0H502.539L502.095 1.39192L504 2ZM544 2L545.906 1.39338L545.462 0H544V2ZM604 190.5L603.972 192.5L606.748 192.539L605.906 189.893L604 190.5ZM522.5 39V37H520.938L520.56 38.5149L522.5 39ZM521 45L522.93 45.5262L522.935 45.5057L522.94 45.4851L521 45ZM517.347 58.2496L519.258 58.8404L519.258 58.8375L517.347 58.2496ZM489.5 148.305L487.589 147.714L486.788 150.305H489.5V148.305ZM555.5 148.305V150.305H558.169L557.419 147.743L555.5 148.305ZM529.136 58.2496L527.216 58.8095L527.217 58.8115L529.136 58.2496ZM525.599 43.6952L527.557 43.2874L527.552 43.2632L527.547 43.2392L525.599 43.6952ZM524.5 39L526.44 38.5149L526.062 37H524.5V39ZM3 4H39V0H3V4ZM37.0776 2.55182L75.9413 137.941L79.786 136.837L40.9224 1.44818L37.0776 2.55182ZM77.8636 139.389H79.0426V135.389H77.8636V139.389ZM80.9665 137.935L119.424 2.54648L115.576 1.45352L77.1187 136.842L80.9665 137.935ZM117.5 4H151V0H117.5V4ZM149.085 1.42437L92.5846 189.424L96.4154 190.576L152.915 2.57563L149.085 1.42437ZM60.9168 189.429L4.91677 1.42905L1.08323 2.57095L57.0832 190.571L60.9168 189.429ZM237.591 4C262.059 4 280.171 7.30381 292.919 23.1188L296.033 20.6085C282.058 3.27194 262.247 0 237.591 0V4ZM292.936 23.1392C306.07 39.0015 312.813 63.2189 312.813 96.1516H316.813C316.813 62.7811 309.998 37.4732 296.016 20.5881L292.936 23.1392ZM312.813 96.1516C312.813 128.876 306.073 153.103 292.928 169.173L296.024 171.706C309.995 154.625 316.813 129.326 316.813 96.1516H312.813ZM292.926 169.175C280.182 184.793 262.07 188 237.591 188V192C262.236 192 282.047 188.833 296.025 171.704L292.926 169.175ZM237.591 188C213.116 188 194.895 184.794 181.952 169.164L178.872 171.715C193.045 188.832 212.943 192 237.591 192V188ZM181.969 169.184C169.014 153.113 162.37 128.881 162.37 96.1516H158.37C158.37 129.321 165.087 154.615 178.855 171.695L181.969 169.184ZM162.37 96.1516C162.37 63.422 169.014 39.1904 181.969 23.1188L178.855 20.6085C165.087 37.6885 158.37 62.9822 158.37 96.1516H162.37ZM181.96 23.1299C194.906 7.30235 213.127 4 237.591 4V0C212.932 0 193.034 3.2734 178.864 20.5974L181.96 23.1299ZM237.591 31C230.785 31 224.968 31.3876 219.912 33.284C214.76 35.2163 210.556 38.6498 206.822 44.4124L210.178 46.5876C213.518 41.4345 217.081 38.6179 221.316 37.0292C225.648 35.4045 230.84 35 237.591 35V31ZM206.817 44.4196C199.749 55.4297 194.328 69.3591 194.328 89.1776H198.328C198.328 70.1845 203.496 56.9975 210.183 46.5804L206.817 44.4196ZM194.328 89.1776V103.126H198.328V89.1776H194.328ZM194.328 103.126C194.328 122.814 198.685 138.274 205.817 149.385L209.183 147.224C202.561 136.908 198.328 122.248 198.328 103.126H194.328ZM205.831 149.407C209.614 155.136 214.116 158.348 219.504 160.075C224.779 161.765 230.821 162 237.591 162V158C230.804 158 225.337 157.744 220.725 156.265C216.224 154.823 212.46 152.187 209.169 147.203L205.831 149.407ZM237.591 162C244.358 162 250.242 161.766 255.357 160.068C260.591 158.331 264.906 155.106 268.669 149.407L265.331 147.203C262.02 152.217 258.41 154.84 254.097 156.272C249.666 157.743 244.383 158 237.591 158V162ZM268.669 149.407C275.979 138.336 281.15 122.885 281.15 103.126H277.15C277.15 122.177 272.169 136.846 265.331 147.203L268.669 149.407ZM281.15 103.126V89.1776H277.15V103.126H281.15ZM281.15 89.1776C281.15 69.4048 275.972 54.4587 268.669 43.398L265.331 45.602C272.176 55.9685 277.15 70.1388 277.15 89.1776H281.15ZM268.678 43.4124C264.91 37.5973 260.582 34.4116 255.331 32.7498C250.218 31.1317 244.327 31 237.591 31V35C244.413 35 249.691 35.1604 254.124 36.5634C258.419 37.9227 262.016 40.4869 265.322 45.5876L268.678 43.4124ZM407.399 32.173V190H411.399V32.173H407.399ZM409.399 188H374.914V192H409.399V188ZM376.914 190V32.173H372.914V190H376.914ZM374.914 30.173H328.935V34.173H374.914V30.173ZM330.935 32.173V2H326.935V32.173H330.935ZM328.935 4H455.673V0H328.935V4ZM453.673 2V32.173H457.673V2H453.673ZM455.673 30.173H409.399V34.173H455.673V30.173ZM570.369 189.288L566.369 178.788L562.631 180.212L566.631 190.712L570.369 189.288ZM564.536 177.5L481.295 176L481.223 180L564.464 181.5L564.536 177.5ZM479.351 177.402L475.591 189.402L479.409 190.598L483.168 178.598L479.351 177.402ZM477.5 188H444V192H477.5V188ZM445.905 190.608L505.905 2.60808L502.095 1.39192L442.095 189.392L445.905 190.608ZM504 4H544V0H504V4ZM542.094 2.60662L602.094 191.107L605.906 189.893L545.906 1.39338L542.094 2.60662ZM604.028 188.5L568.528 188L568.472 192L603.972 192.5L604.028 188.5ZM520.56 38.5149C520.559 38.5188 520.558 38.5227 520.557 38.5266C520.556 38.5306 520.555 38.5345 520.554 38.5384C520.553 38.5423 520.552 38.5462 520.551 38.5501C520.55 38.554 520.549 38.5579 520.548 38.5618C520.547 38.5657 520.546 38.5696 520.545 38.5735C520.544 38.5774 520.543 38.5813 520.542 38.5852C520.541 38.5891 520.54 38.5931 520.539 38.597C520.538 38.6009 520.537 38.6048 520.536 38.6087C520.535 38.6126 520.534 38.6165 520.533 38.6204C520.532 38.6243 520.531 38.6282 520.53 38.6321C520.529 38.636 520.528 38.6399 520.527 38.6438C520.527 38.6477 520.526 38.6516 520.525 38.6556C520.524 38.6595 520.523 38.6634 520.522 38.6673C520.521 38.6712 520.52 38.6751 520.519 38.679C520.518 38.6829 520.517 38.6868 520.516 38.6907C520.515 38.6946 520.514 38.6985 520.513 38.7024C520.512 38.7063 520.511 38.7102 520.51 38.7141C520.509 38.7181 520.508 38.722 520.507 38.7259C520.506 38.7298 520.505 38.7337 520.504 38.7376C520.503 38.7415 520.502 38.7454 520.501 38.7493C520.5 38.7532 520.499 38.7571 520.498 38.761C520.497 38.7649 520.496 38.7688 520.495 38.7727C520.494 38.7766 520.493 38.7806 520.492 38.7845C520.491 38.7884 520.49 38.7923 520.489 38.7962C520.488 38.8001 520.487 38.804 520.486 38.8079C520.485 38.8118 520.485 38.8157 520.484 38.8196C520.483 38.8235 520.482 38.8274 520.481 38.8313C520.48 38.8352 520.479 38.8391 520.478 38.8431C520.477 38.847 520.476 38.8509 520.475 38.8548C520.474 38.8587 520.473 38.8626 520.472 38.8665C520.471 38.8704 520.47 38.8743 520.469 38.8782C520.468 38.8821 520.467 38.886 520.466 38.8899C520.465 38.8938 520.464 38.8977 520.463 38.9016C520.462 38.9056 520.461 38.9095 520.46 38.9134C520.459 38.9173 520.458 38.9212 520.457 38.9251C520.456 38.929 520.455 38.9329 520.454 38.9368C520.453 38.9407 520.452 38.9446 520.451 38.9485C520.45 38.9524 520.449 38.9563 520.448 38.9602C520.447 38.9641 520.446 38.9681 520.445 38.972C520.444 38.9759 520.444 38.9798 520.443 38.9837C520.442 38.9876 520.441 38.9915 520.44 38.9954C520.439 38.9993 520.438 39.0032 520.437 39.0071C520.436 39.011 520.435 39.0149 520.434 39.0188C520.433 39.0227 520.432 39.0266 520.431 39.0306C520.43 39.0345 520.429 39.0384 520.428 39.0423C520.427 39.0462 520.426 39.0501 520.425 39.054C520.424 39.0579 520.423 39.0618 520.422 39.0657C520.421 39.0696 520.42 39.0735 520.419 39.0774C520.418 39.0813 520.417 39.0852 520.416 39.0891C520.415 39.0931 520.414 39.097 520.413 39.1009C520.412 39.1048 520.411 39.1087 520.41 39.1126C520.409 39.1165 520.408 39.1204 520.407 39.1243C520.406 39.1282 520.405 39.1321 520.404 39.136C520.403 39.1399 520.402 39.1438 520.402 39.1477C520.401 39.1516 520.4 39.1556 520.399 39.1595C520.398 39.1634 520.397 39.1673 520.396 39.1712C520.395 39.1751 520.394 39.179 520.393 39.1829C520.392 39.1868 520.391 39.1907 520.39 39.1946C520.389 39.1985 520.388 39.2024 520.387 39.2063C520.386 39.2102 520.385 39.2141 520.384 39.2181C520.383 39.222 520.382 39.2259 520.381 39.2298C520.38 39.2337 520.379 39.2376 520.378 39.2415C520.377 39.2454 520.376 39.2493 520.375 39.2532C520.374 39.2571 520.373 39.261 520.372 39.2649C520.371 39.2688 520.37 39.2727 520.369 39.2766C520.368 39.2806 520.367 39.2845 520.366 39.2884C520.365 39.2923 520.364 39.2962 520.363 39.3001C520.362 39.304 520.361 39.3079 520.36 39.3118C520.36 39.3157 520.359 39.3196 520.358 39.3235C520.357 39.3274 520.356 39.3313 520.355 39.3352C520.354 39.3391 520.353 39.3431 520.352 39.347C520.351 39.3509 520.35 39.3548 520.349 39.3587C520.348 39.3626 520.347 39.3665 520.346 39.3704C520.345 39.3743 520.344 39.3782 520.343 39.3821C520.342 39.386 520.341 39.3899 520.34 39.3938C520.339 39.3977 520.338 39.4016 520.337 39.4056C520.336 39.4095 520.335 39.4134 520.334 39.4173C520.333 39.4212 520.332 39.4251 520.331 39.429C520.33 39.4329 520.329 39.4368 520.328 39.4407C520.327 39.4446 520.326 39.4485 520.325 39.4524C520.324 39.4563 520.323 39.4602 520.322 39.4641C520.321 39.4681 520.32 39.472 520.319 39.4759C520.319 39.4798 520.318 39.4837 520.317 39.4876C520.316 39.4915 520.315 39.4954 520.314 39.4993C520.313 39.5032 520.312 39.5071 520.311 39.511C520.31 39.5149 520.309 39.5188 520.308 39.5227C520.307 39.5266 520.306 39.5306 520.305 39.5345C520.304 39.5384 520.303 39.5423 520.302 39.5462C520.301 39.5501 520.3 39.554 520.299 39.5579C520.298 39.5618 520.297 39.5657 520.296 39.5696C520.295 39.5735 520.294 39.5774 520.293 39.5813C520.292 39.5852 520.291 39.5891 520.29 39.5931C520.289 39.597 520.288 39.6009 520.287 39.6048C520.286 39.6087 520.285 39.6126 520.284 39.6165C520.283 39.6204 520.282 39.6243 520.281 39.6282C520.28 39.6321 520.279 39.636 520.278 39.6399C520.277 39.6438 520.277 39.6477 520.276 39.6516C520.275 39.6556 520.274 39.6595 520.273 39.6634C520.272 39.6673 520.271 39.6712 520.27 39.6751C520.269 39.679 520.268 39.6829 520.267 39.6868C520.266 39.6907 520.265 39.6946 520.264 39.6985C520.263 39.7024 520.262 39.7063 520.261 39.7102C520.26 39.7141 520.259 39.7181 520.258 39.722C520.257 39.7259 520.256 39.7298 520.255 39.7337C520.254 39.7376 520.253 39.7415 520.252 39.7454C520.251 39.7493 520.25 39.7532 520.249 39.7571C520.248 39.761 520.247 39.7649 520.246 39.7688C520.245 39.7727 520.244 39.7766 520.243 39.7806C520.242 39.7845 520.241 39.7884 520.24 39.7923C520.239 39.7962 520.238 39.8001 520.237 39.804C520.236 39.8079 520.235 39.8118 520.235 39.8157C520.234 39.8196 520.233 39.8235 520.232 39.8274C520.231 39.8313 520.23 39.8352 520.229 39.8391C520.228 39.8431 520.227 39.847 520.226 39.8509C520.225 39.8548 520.224 39.8587 520.223 39.8626C520.222 39.8665 520.221 39.8704 520.22 39.8743C520.219 39.8782 520.218 39.8821 520.217 39.886C520.216 39.8899 520.215 39.8938 520.214 39.8977C520.213 39.9016 520.212 39.9056 520.211 39.9095C520.21 39.9134 520.209 39.9173 520.208 39.9212C520.207 39.9251 520.206 39.929 520.205 39.9329C520.204 39.9368 520.203 39.9407 520.202 39.9446C520.201 39.9485 520.2 39.9524 520.199 39.9563C520.198 39.9602 520.197 39.9641 520.196 39.9681C520.195 39.972 520.194 39.9759 520.194 39.9798C520.193 39.9837 520.192 39.9876 520.191 39.9915C520.19 39.9954 520.189 39.9993 520.188 40.0032C520.187 40.0071 520.186 40.011 520.185 40.0149C520.184 40.0188 520.183 40.0227 520.182 40.0266C520.181 40.0306 520.18 40.0345 520.179 40.0384C520.178 40.0423 520.177 40.0462 520.176 40.0501C520.175 40.054 520.174 40.0579 520.173 40.0618C520.172 40.0657 520.171 40.0696 520.17 40.0735C520.169 40.0774 520.168 40.0813 520.167 40.0852C520.166 40.0891 520.165 40.0931 520.164 40.097C520.163 40.1009 520.162 40.1048 520.161 40.1087C520.16 40.1126 520.159 40.1165 520.158 40.1204C520.157 40.1243 520.156 40.1282 520.155 40.1321C520.154 40.136 520.153 40.1399 520.152 40.1438C520.152 40.1477 520.151 40.1516 520.15 40.1556C520.149 40.1595 520.148 40.1634 520.147 40.1673C520.146 40.1712 520.145 40.1751 520.144 40.179C520.143 40.1829 520.142 40.1868 520.141 40.1907C520.14 40.1946 520.139 40.1985 520.138 40.2024C520.137 40.2063 520.136 40.2102 520.135 40.2141C520.134 40.2181 520.133 40.222 520.132 40.2259C520.131 40.2298 520.13 40.2337 520.129 40.2376C520.128 40.2415 520.127 40.2454 520.126 40.2493C520.125 40.2532 520.124 40.2571 520.123 40.261C520.122 40.2649 520.121 40.2688 520.12 40.2727C520.119 40.2766 520.118 40.2806 520.117 40.2845C520.116 40.2884 520.115 40.2923 520.114 40.2962C520.113 40.3001 520.112 40.304 520.111 40.3079C520.11 40.3118 520.11 40.3157 520.109 40.3196C520.108 40.3235 520.107 40.3274 520.106 40.3313C520.105 40.3352 520.104 40.3391 520.103 40.3431C520.102 40.347 520.101 40.3509 520.1 40.3548C520.099 40.3587 520.098 40.3626 520.097 40.3665C520.096 40.3704 520.095 40.3743 520.094 40.3782C520.093 40.3821 520.092 40.386 520.091 40.3899C520.09 40.3938 520.089 40.3977 520.088 40.4016C520.087 40.4056 520.086 40.4095 520.085 40.4134C520.084 40.4173 520.083 40.4212 520.082 40.4251C520.081 40.429 520.08 40.4329 520.079 40.4368C520.078 40.4407 520.077 40.4446 520.076 40.4485C520.075 40.4524 520.074 40.4563 520.073 40.4602C520.072 40.4641 520.071 40.4681 520.07 40.472C520.069 40.4759 520.069 40.4798 520.068 40.4837C520.067 40.4876 520.066 40.4915 520.065 40.4954C520.064 40.4993 520.063 40.5032 520.062 40.5071C520.061 40.511 520.06 40.5149 520.059 40.5188C520.058 40.5227 520.057 40.5266 520.056 40.5306C520.055 40.5345 520.054 40.5384 520.053 40.5423C520.052 40.5462 520.051 40.5501 520.05 40.554C520.049 40.5579 520.048 40.5618 520.047 40.5657C520.046 40.5696 520.045 40.5735 520.044 40.5774C520.043 40.5813 520.042 40.5852 520.041 40.5891C520.04 40.5931 520.039 40.597 520.038 40.6009C520.037 40.6048 520.036 40.6087 520.035 40.6126C520.034 40.6165 520.033 40.6204 520.032 40.6243C520.031 40.6282 520.03 40.6321 520.029 40.636C520.028 40.6399 520.027 40.6438 520.027 40.6477C520.026 40.6516 520.025 40.6556 520.024 40.6595C520.023 40.6634 520.022 40.6673 520.021 40.6712C520.02 40.6751 520.019 40.679 520.018 40.6829C520.017 40.6868 520.016 40.6907 520.015 40.6946C520.014 40.6985 520.013 40.7024 520.012 40.7063C520.011 40.7102 520.01 40.7141 520.009 40.7181C520.008 40.722 520.007 40.7259 520.006 40.7298C520.005 40.7337 520.004 40.7376 520.003 40.7415C520.002 40.7454 520.001 40.7493 520 40.7532C519.999 40.7571 519.998 40.761 519.997 40.7649C519.996 40.7688 519.995 40.7727 519.994 40.7766C519.993 40.7806 519.992 40.7845 519.991 40.7884C519.99 40.7923 519.989 40.7962 519.988 40.8001C519.987 40.804 519.986 40.8079 519.985 40.8118C519.985 40.8157 519.984 40.8196 519.983 40.8235C519.982 40.8274 519.981 40.8313 519.98 40.8352C519.979 40.8391 519.978 40.8431 519.977 40.847C519.976 40.8509 519.975 40.8548 519.974 40.8587C519.973 40.8626 519.972 40.8665 519.971 40.8704C519.97 40.8743 519.969 40.8782 519.968 40.8821C519.967 40.886 519.966 40.8899 519.965 40.8938C519.964 40.8977 519.963 40.9016 519.962 40.9056C519.961 40.9095 519.96 40.9134 519.959 40.9173C519.958 40.9212 519.957 40.9251 519.956 40.929C519.955 40.9329 519.954 40.9368 519.953 40.9407C519.952 40.9446 519.951 40.9485 519.95 40.9524C519.949 40.9563 519.948 40.9602 519.947 40.9641C519.946 40.9681 519.945 40.972 519.944 40.9759C519.944 40.9798 519.943 40.9837 519.942 40.9876C519.941 40.9915 519.94 40.9954 519.939 40.9993C519.938 41.0032 519.937 41.0071 519.936 41.011C519.935 41.0149 519.934 41.0188 519.933 41.0227C519.932 41.0266 519.931 41.0306 519.93 41.0345C519.929 41.0384 519.928 41.0423 519.927 41.0462C519.926 41.0501 519.925 41.054 519.924 41.0579C519.923 41.0618 519.922 41.0657 519.921 41.0696C519.92 41.0735 519.919 41.0774 519.918 41.0813C519.917 41.0852 519.916 41.0891 519.915 41.0931C519.914 41.097 519.913 41.1009 519.912 41.1048C519.911 41.1087 519.91 41.1126 519.909 41.1165C519.908 41.1204 519.907 41.1243 519.906 41.1282C519.905 41.1321 519.904 41.136 519.903 41.1399C519.902 41.1438 519.902 41.1477 519.901 41.1516C519.9 41.1556 519.899 41.1595 519.898 41.1634C519.897 41.1673 519.896 41.1712 519.895 41.1751C519.894 41.179 519.893 41.1829 519.892 41.1868C519.891 41.1907 519.89 41.1946 519.889 41.1985C519.888 41.2024 519.887 41.2063 519.886 41.2102C519.885 41.2141 519.884 41.2181 519.883 41.222C519.882 41.2259 519.881 41.2298 519.88 41.2337C519.879 41.2376 519.878 41.2415 519.877 41.2454C519.876 41.2493 519.875 41.2532 519.874 41.2571C519.873 41.261 519.872 41.2649 519.871 41.2688C519.87 41.2727 519.869 41.2766 519.868 41.2806C519.867 41.2845 519.866 41.2884 519.865 41.2923C519.864 41.2962 519.863 41.3001 519.862 41.304C519.861 41.3079 519.86 41.3118 519.86 41.3157C519.859 41.3196 519.858 41.3235 519.857 41.3274C519.856 41.3313 519.855 41.3352 519.854 41.3391C519.853 41.3431 519.852 41.347 519.851 41.3509C519.85 41.3548 519.849 41.3587 519.848 41.3626C519.847 41.3665 519.846 41.3704 519.845 41.3743C519.844 41.3782 519.843 41.3821 519.842 41.386C519.841 41.3899 519.84 41.3938 519.839 41.3977C519.838 41.4016 519.837 41.4056 519.836 41.4095C519.835 41.4134 519.834 41.4173 519.833 41.4212C519.832 41.4251 519.831 41.429 519.83 41.4329C519.829 41.4368 519.828 41.4407 519.827 41.4446C519.826 41.4485 519.825 41.4524 519.824 41.4563C519.823 41.4602 519.822 41.4641 519.821 41.4681C519.82 41.472 519.819 41.4759 519.819 41.4798C519.818 41.4837 519.817 41.4876 519.816 41.4915C519.815 41.4954 519.814 41.4993 519.813 41.5032C519.812 41.5071 519.811 41.511 519.81 41.5149C519.809 41.5188 519.808 41.5227 519.807 41.5266C519.806 41.5306 519.805 41.5345 519.804 41.5384C519.803 41.5423 519.802 41.5462 519.801 41.5501C519.8 41.554 519.799 41.5579 519.798 41.5618C519.797 41.5657 519.796 41.5696 519.795 41.5735C519.794 41.5774 519.793 41.5813 519.792 41.5852C519.791 41.5891 519.79 41.5931 519.789 41.597C519.788 41.6009 519.787 41.6048 519.786 41.6087C519.785 41.6126 519.784 41.6165 519.783 41.6204C519.782 41.6243 519.781 41.6282 519.78 41.6321C519.779 41.636 519.778 41.6399 519.777 41.6438C519.777 41.6477 519.776 41.6516 519.775 41.6556C519.774 41.6595 519.773 41.6634 519.772 41.6673C519.771 41.6712 519.77 41.6751 519.769 41.679C519.768 41.6829 519.767 41.6868 519.766 41.6907C519.765 41.6946 519.764 41.6985 519.763 41.7024C519.762 41.7063 519.761 41.7102 519.76 41.7141C519.759 41.7181 519.758 41.722 519.757 41.7259C519.756 41.7298 519.755 41.7337 519.754 41.7376C519.753 41.7415 519.752 41.7454 519.751 41.7493C519.75 41.7532 519.749 41.7571 519.748 41.761C519.747 41.7649 519.746 41.7688 519.745 41.7727C519.744 41.7766 519.743 41.7806 519.742 41.7845C519.741 41.7884 519.74 41.7923 519.739 41.7962C519.738 41.8001 519.737 41.804 519.736 41.8079C519.735 41.8118 519.735 41.8157 519.734 41.8196C519.733 41.8235 519.732 41.8274 519.731 41.8313C519.73 41.8352 519.729 41.8391 519.728 41.8431C519.727 41.847 519.726 41.8509 519.725 41.8548C519.724 41.8587 519.723 41.8626 519.722 41.8665C519.721 41.8704 519.72 41.8743 519.719 41.8782C519.718 41.8821 519.717 41.886 519.716 41.8899C519.715 41.8938 519.714 41.8977 519.713 41.9016C519.712 41.9056 519.711 41.9095 519.71 41.9134C519.709 41.9173 519.708 41.9212 519.707 41.9251C519.706 41.929 519.705 41.9329 519.704 41.9368C519.703 41.9407 519.702 41.9446 519.701 41.9485C519.7 41.9524 519.699 41.9563 519.698 41.9602C519.697 41.9641 519.696 41.9681 519.695 41.972C519.694 41.9759 519.694 41.9798 519.693 41.9837C519.692 41.9876 519.691 41.9915 519.69 41.9954C519.689 41.9993 519.688 42.0032 519.687 42.0071C519.686 42.011 519.685 42.0149 519.684 42.0188C519.683 42.0227 519.682 42.0266 519.681 42.0306C519.68 42.0345 519.679 42.0384 519.678 42.0423C519.677 42.0462 519.676 42.0501 519.675 42.054C519.674 42.0579 519.673 42.0618 519.672 42.0657C519.671 42.0696 519.67 42.0735 519.669 42.0774C519.668 42.0813 519.667 42.0852 519.666 42.0891C519.665 42.0931 519.664 42.097 519.663 42.1009C519.662 42.1048 519.661 42.1087 519.66 42.1126C519.659 42.1165 519.658 42.1204 519.657 42.1243C519.656 42.1282 519.655 42.1321 519.654 42.136C519.653 42.1399 519.652 42.1438 519.652 42.1477C519.651 42.1516 519.65 42.1556 519.649 42.1595C519.648 42.1634 519.647 42.1673 519.646 42.1712C519.645 42.1751 519.644 42.179 519.643 42.1829C519.642 42.1868 519.641 42.1907 519.64 42.1946C519.639 42.1985 519.638 42.2024 519.637 42.2063C519.636 42.2102 519.635 42.2141 519.634 42.2181C519.633 42.222 519.632 42.2259 519.631 42.2298C519.63 42.2337 519.629 42.2376 519.628 42.2415C519.627 42.2454 519.626 42.2493 519.625 42.2532C519.624 42.2571 519.623 42.261 519.622 42.2649C519.621 42.2688 519.62 42.2727 519.619 42.2766C519.618 42.2806 519.617 42.2845 519.616 42.2884C519.615 42.2923 519.614 42.2962 519.613 42.3001C519.612 42.304 519.611 42.3079 519.61 42.3118C519.61 42.3157 519.609 42.3196 519.608 42.3235C519.607 42.3274 519.606 42.3313 519.605 42.3352C519.604 42.3391 519.603 42.3431 519.602 42.347C519.601 42.3509 519.6 42.3548 519.599 42.3587C519.598 42.3626 519.597 42.3665 519.596 42.3704C519.595 42.3743 519.594 42.3782 519.593 42.3821C519.592 42.386 519.591 42.3899 519.59 42.3938C519.589 42.3977 519.588 42.4016 519.587 42.4056C519.586 42.4095 519.585 42.4134 519.584 42.4173C519.583 42.4212 519.582 42.4251 519.581 42.429C519.58 42.4329 519.579 42.4368 519.578 42.4407C519.577 42.4446 519.576 42.4485 519.575 42.4524C519.574 42.4563 519.573 42.4602 519.572 42.4641C519.571 42.4681 519.57 42.472 519.569 42.4759C519.569 42.4798 519.568 42.4837 519.567 42.4876C519.566 42.4915 519.565 42.4954 519.564 42.4993C519.563 42.5032 519.562 42.5071 519.561 42.511C519.56 42.5149 519.559 42.5188 519.558 42.5227C519.557 42.5266 519.556 42.5306 519.555 42.5345C519.554 42.5384 519.553 42.5423 519.552 42.5462C519.551 42.5501 519.55 42.554 519.549 42.5579C519.548 42.5618 519.547 42.5657 519.546 42.5696C519.545 42.5735 519.544 42.5774 519.543 42.5813C519.542 42.5852 519.541 42.5891 519.54 42.5931C519.539 42.597 519.538 42.6009 519.537 42.6048C519.536 42.6087 519.535 42.6126 519.534 42.6165C519.533 42.6204 519.532 42.6243 519.531 42.6282C519.53 42.6321 519.529 42.636 519.528 42.6399C519.527 42.6438 519.527 42.6477 519.526 42.6516C519.525 42.6556 519.524 42.6595 519.523 42.6634C519.522 42.6673 519.521 42.6712 519.52 42.6751C519.519 42.679 519.518 42.6829 519.517 42.6868C519.516 42.6907 519.515 42.6946 519.514 42.6985C519.513 42.7024 519.512 42.7063 519.511 42.7102C519.51 42.7141 519.509 42.7181 519.508 42.722C519.507 42.7259 519.506 42.7298 519.505 42.7337C519.504 42.7376 519.503 42.7415 519.502 42.7454C519.501 42.7493 519.5 42.7532 519.499 42.7571C519.498 42.761 519.497 42.7649 519.496 42.7688C519.495 42.7727 519.494 42.7766 519.493 42.7806C519.492 42.7845 519.491 42.7884 519.49 42.7923C519.489 42.7962 519.488 42.8001 519.487 42.804C519.486 42.8079 519.485 42.8118 519.485 42.8157C519.484 42.8196 519.483 42.8235 519.482 42.8274C519.481 42.8313 519.48 42.8352 519.479 42.8391C519.478 42.8431 519.477 42.847 519.476 42.8509C519.475 42.8548 519.474 42.8587 519.473 42.8626C519.472 42.8665 519.471 42.8704 519.47 42.8743C519.469 42.8782 519.468 42.8821 519.467 42.886C519.466 42.8899 519.465 42.8938 519.464 42.8977C519.463 42.9016 519.462 42.9056 519.461 42.9095C519.46 42.9134 519.459 42.9173 519.458 42.9212C519.457 42.9251 519.456 42.929 519.455 42.9329C519.454 42.9368 519.453 42.9407 519.452 42.9446C519.451 42.9485 519.45 42.9524 519.449 42.9563C519.448 42.9602 519.447 42.9641 519.446 42.9681C519.445 42.972 519.444 42.9759 519.444 42.9798C519.443 42.9837 519.442 42.9876 519.441 42.9915C519.44 42.9954 519.439 42.9993 519.438 43.0032C519.437 43.0071 519.436 43.011 519.435 43.0149C519.434 43.0188 519.433 43.0227 519.432 43.0266C519.431 43.0306 519.43 43.0345 519.429 43.0384C519.428 43.0423 519.427 43.0462 519.426 43.0501C519.425 43.054 519.424 43.0579 519.423 43.0618C519.422 43.0657 519.421 43.0696 519.42 43.0735C519.419 43.0774 519.418 43.0813 519.417 43.0852C519.416 43.0891 519.415 43.0931 519.414 43.097C519.413 43.1009 519.412 43.1048 519.411 43.1087C519.41 43.1126 519.409 43.1165 519.408 43.1204C519.407 43.1243 519.406 43.1282 519.405 43.1321C519.404 43.136 519.403 43.1399 519.402 43.1438C519.402 43.1477 519.401 43.1516 519.4 43.1556C519.399 43.1595 519.398 43.1634 519.397 43.1673C519.396 43.1712 519.395 43.1751 519.394 43.179C519.393 43.1829 519.392 43.1868 519.391 43.1907C519.39 43.1946 519.389 43.1985 519.388 43.2024C519.387 43.2063 519.386 43.2102 519.385 43.2141C519.384 43.2181 519.383 43.222 519.382 43.2259C519.381 43.2298 519.38 43.2337 519.379 43.2376C519.378 43.2415 519.377 43.2454 519.376 43.2493C519.375 43.2532 519.374 43.2571 519.373 43.261C519.372 43.2649 519.371 43.2688 519.37 43.2727C519.369 43.2766 519.368 43.2806 519.367 43.2845C519.366 43.2884 519.365 43.2923 519.364 43.2962C519.363 43.3001 519.362 43.304 519.361 43.3079C519.36 43.3118 519.36 43.3157 519.359 43.3196C519.358 43.3235 519.357 43.3274 519.356 43.3313C519.355 43.3352 519.354 43.3391 519.353 43.3431C519.352 43.347 519.351 43.3509 519.35 43.3548C519.349 43.3587 519.348 43.3626 519.347 43.3665C519.346 43.3704 519.345 43.3743 519.344 43.3782C519.343 43.3821 519.342 43.386 519.341 43.3899C519.34 43.3938 519.339 43.3977 519.338 43.4016C519.337 43.4056 519.336 43.4095 519.335 43.4134C519.334 43.4173 519.333 43.4212 519.332 43.4251C519.331 43.429 519.33 43.4329 519.329 43.4368C519.328 43.4407 519.327 43.4446 519.326 43.4485C519.325 43.4524 519.324 43.4563 519.323 43.4602C519.322 43.4641 519.321 43.4681 519.32 43.472C519.319 43.4759 519.319 43.4798 519.318 43.4837C519.317 43.4876 519.316 43.4915 519.315 43.4954C519.314 43.4993 519.313 43.5032 519.312 43.5071C519.311 43.511 519.31 43.5149 519.309 43.5188C519.308 43.5227 519.307 43.5266 519.306 43.5306C519.305 43.5345 519.304 43.5384 519.303 43.5423C519.302 43.5462 519.301 43.5501 519.3 43.554C519.299 43.5579 519.298 43.5618 519.297 43.5657C519.296 43.5696 519.295 43.5735 519.294 43.5774C519.293 43.5813 519.292 43.5852 519.291 43.5891C519.29 43.5931 519.289 43.597 519.288 43.6009C519.287 43.6048 519.286 43.6087 519.285 43.6126C519.284 43.6165 519.283 43.6204 519.282 43.6243C519.281 43.6282 519.28 43.6321 519.279 43.636C519.278 43.6399 519.277 43.6438 519.277 43.6477C519.276 43.6516 519.275 43.6556 519.274 43.6595C519.273 43.6634 519.272 43.6673 519.271 43.6712C519.27 43.6751 519.269 43.679 519.268 43.6829C519.267 43.6868 519.266 43.6907 519.265 43.6946C519.264 43.6985 519.263 43.7024 519.262 43.7063C519.261 43.7102 519.26 43.7141 519.259 43.7181C519.258 43.722 519.257 43.7259 519.256 43.7298C519.255 43.7337 519.254 43.7376 519.253 43.7415C519.252 43.7454 519.251 43.7493 519.25 43.7532C519.249 43.7571 519.248 43.761 519.247 43.7649C519.246 43.7688 519.245 43.7727 519.244 43.7766C519.243 43.7806 519.242 43.7845 519.241 43.7884C519.24 43.7923 519.239 43.7962 519.238 43.8001C519.237 43.804 519.236 43.8079 519.235 43.8118C519.235 43.8157 519.234 43.8196 519.233 43.8235C519.232 43.8274 519.231 43.8313 519.23 43.8352C519.229 43.8391 519.228 43.8431 519.227 43.847C519.226 43.8509 519.225 43.8548 519.224 43.8587C519.223 43.8626 519.222 43.8665 519.221 43.8704C519.22 43.8743 519.219 43.8782 519.218 43.8821C519.217 43.886 519.216 43.8899 519.215 43.8938C519.214 43.8977 519.213 43.9016 519.212 43.9056C519.211 43.9095 519.21 43.9134 519.209 43.9173C519.208 43.9212 519.207 43.9251 519.206 43.929C519.205 43.9329 519.204 43.9368 519.203 43.9407C519.202 43.9446 519.201 43.9485 519.2 43.9524C519.199 43.9563 519.198 43.9602 519.197 43.9641C519.196 43.9681 519.195 43.972 519.194 43.9759C519.194 43.9798 519.193 43.9837 519.192 43.9876C519.191 43.9915 519.19 43.9954 519.189 43.9993C519.188 44.0032 519.187 44.0071 519.186 44.011C519.185 44.0149 519.184 44.0188 519.183 44.0227C519.182 44.0266 519.181 44.0306 519.18 44.0345C519.179 44.0384 519.178 44.0423 519.177 44.0462C519.176 44.0501 519.175 44.054 519.174 44.0579C519.173 44.0618 519.172 44.0657 519.171 44.0696C519.17 44.0735 519.169 44.0774 519.168 44.0813C519.167 44.0852 519.166 44.0891 519.165 44.0931C519.164 44.097 519.163 44.1009 519.162 44.1048C519.161 44.1087 519.16 44.1126 519.159 44.1165C519.158 44.1204 519.157 44.1243 519.156 44.1282C519.155 44.1321 519.154 44.136 519.153 44.1399C519.152 44.1438 519.152 44.1477 519.151 44.1516C519.15 44.1556 519.149 44.1595 519.148 44.1634C519.147 44.1673 519.146 44.1712 519.145 44.1751C519.144 44.179 519.143 44.1829 519.142 44.1868C519.141 44.1907 519.14 44.1946 519.139 44.1985C519.138 44.2024 519.137 44.2063 519.136 44.2102C519.135 44.2141 519.134 44.2181 519.133 44.222C519.132 44.2259 519.131 44.2298 519.13 44.2337C519.129 44.2376 519.128 44.2415 519.127 44.2454C519.126 44.2493 519.125 44.2532 519.124 44.2571C519.123 44.261 519.122 44.2649 519.121 44.2688C519.12 44.2727 519.119 44.2766 519.118 44.2806C519.117 44.2845 519.116 44.2884 519.115 44.2923C519.114 44.2962 519.113 44.3001 519.112 44.304C519.111 44.3079 519.11 44.3118 519.11 44.3157C519.109 44.3196 519.108 44.3235 519.107 44.3274C519.106 44.3313 519.105 44.3352 519.104 44.3391C519.103 44.3431 519.102 44.347 519.101 44.3509C519.1 44.3548 519.099 44.3587 519.098 44.3626C519.097 44.3665 519.096 44.3704 519.095 44.3743C519.094 44.3782 519.093 44.3821 519.092 44.386C519.091 44.3899 519.09 44.3938 519.089 44.3977C519.088 44.4016 519.087 44.4056 519.086 44.4095C519.085 44.4134 519.084 44.4173 519.083 44.4212C519.082 44.4251 519.081 44.429 519.08 44.4329C519.079 44.4368 519.078 44.4407 519.077 44.4446C519.076 44.4485 519.075 44.4524 519.074 44.4563C519.073 44.4602 519.072 44.4641 519.071 44.4681C519.07 44.472 519.069 44.4759 519.069 44.4798C519.068 44.4837 519.067 44.4876 519.066 44.4915C519.065 44.4954 519.064 44.4993 519.063 44.5032C519.062 44.5071 519.061 44.511 519.06 44.5149L522.94 45.4851C522.941 45.4812 522.942 45.4773 522.943 45.4734C522.944 45.4694 522.945 45.4655 522.946 45.4616C522.947 45.4577 522.948 45.4538 522.949 45.4499C522.95 45.446 522.951 45.4421 522.952 45.4382C522.953 45.4343 522.954 45.4304 522.955 45.4265C522.956 45.4226 522.957 45.4187 522.958 45.4148C522.959 45.4109 522.96 45.4069 522.961 45.403C522.962 45.3991 522.963 45.3952 522.964 45.3913C522.965 45.3874 522.966 45.3835 522.967 45.3796C522.968 45.3757 522.969 45.3718 522.97 45.3679C522.971 45.364 522.972 45.3601 522.973 45.3562C522.973 45.3523 522.974 45.3484 522.975 45.3444C522.976 45.3405 522.977 45.3366 522.978 45.3327C522.979 45.3288 522.98 45.3249 522.981 45.321C522.982 45.3171 522.983 45.3132 522.984 45.3093C522.985 45.3054 522.986 45.3015 522.987 45.2976C522.988 45.2937 522.989 45.2898 522.99 45.2859C522.991 45.2819 522.992 45.278 522.993 45.2741C522.994 45.2702 522.995 45.2663 522.996 45.2624C522.997 45.2585 522.998 45.2546 522.999 45.2507C523 45.2468 523.001 45.2429 523.002 45.239C523.003 45.2351 523.004 45.2312 523.005 45.2273C523.006 45.2234 523.007 45.2194 523.008 45.2155C523.009 45.2116 523.01 45.2077 523.011 45.2038C523.012 45.1999 523.013 45.196 523.014 45.1921C523.015 45.1882 523.015 45.1843 523.016 45.1804C523.017 45.1765 523.018 45.1726 523.019 45.1687C523.02 45.1648 523.021 45.1609 523.022 45.1569C523.023 45.153 523.024 45.1491 523.025 45.1452C523.026 45.1413 523.027 45.1374 523.028 45.1335C523.029 45.1296 523.03 45.1257 523.031 45.1218C523.032 45.1179 523.033 45.114 523.034 45.1101C523.035 45.1062 523.036 45.1023 523.037 45.0984C523.038 45.0944 523.039 45.0905 523.04 45.0866C523.041 45.0827 523.042 45.0788 523.043 45.0749C523.044 45.071 523.045 45.0671 523.046 45.0632C523.047 45.0593 523.048 45.0554 523.049 45.0515C523.05 45.0476 523.051 45.0437 523.052 45.0398C523.053 45.0359 523.054 45.0319 523.055 45.028C523.056 45.0241 523.056 45.0202 523.057 45.0163C523.058 45.0124 523.059 45.0085 523.06 45.0046C523.061 45.0007 523.062 44.9968 523.063 44.9929C523.064 44.989 523.065 44.9851 523.066 44.9812C523.067 44.9773 523.068 44.9734 523.069 44.9694C523.07 44.9655 523.071 44.9616 523.072 44.9577C523.073 44.9538 523.074 44.9499 523.075 44.946C523.076 44.9421 523.077 44.9382 523.078 44.9343C523.079 44.9304 523.08 44.9265 523.081 44.9226C523.082 44.9187 523.083 44.9148 523.084 44.9109C523.085 44.9069 523.086 44.903 523.087 44.8991C523.088 44.8952 523.089 44.8913 523.09 44.8874C523.091 44.8835 523.092 44.8796 523.093 44.8757C523.094 44.8718 523.095 44.8679 523.096 44.864C523.097 44.8601 523.098 44.8562 523.098 44.8523C523.099 44.8484 523.1 44.8444 523.101 44.8405C523.102 44.8366 523.103 44.8327 523.104 44.8288C523.105 44.8249 523.106 44.821 523.107 44.8171C523.108 44.8132 523.109 44.8093 523.11 44.8054C523.111 44.8015 523.112 44.7976 523.113 44.7937C523.114 44.7898 523.115 44.7859 523.116 44.7819C523.117 44.778 523.118 44.7741 523.119 44.7702C523.12 44.7663 523.121 44.7624 523.122 44.7585C523.123 44.7546 523.124 44.7507 523.125 44.7468C523.126 44.7429 523.127 44.739 523.128 44.7351C523.129 44.7312 523.13 44.7273 523.131 44.7234C523.132 44.7194 523.133 44.7155 523.134 44.7116C523.135 44.7077 523.136 44.7038 523.137 44.6999C523.138 44.696 523.139 44.6921 523.14 44.6882C523.14 44.6843 523.141 44.6804 523.142 44.6765C523.143 44.6726 523.144 44.6687 523.145 44.6648C523.146 44.6609 523.147 44.6569 523.148 44.653C523.149 44.6491 523.15 44.6452 523.151 44.6413C523.152 44.6374 523.153 44.6335 523.154 44.6296C523.155 44.6257 523.156 44.6218 523.157 44.6179C523.158 44.614 523.159 44.6101 523.16 44.6062C523.161 44.6023 523.162 44.5984 523.163 44.5944C523.164 44.5905 523.165 44.5866 523.166 44.5827C523.167 44.5788 523.168 44.5749 523.169 44.571C523.17 44.5671 523.171 44.5632 523.172 44.5593C523.173 44.5554 523.174 44.5515 523.175 44.5476C523.176 44.5437 523.177 44.5398 523.178 44.5359C523.179 44.5319 523.18 44.528 523.181 44.5241C523.181 44.5202 523.182 44.5163 523.183 44.5124C523.184 44.5085 523.185 44.5046 523.186 44.5007C523.187 44.4968 523.188 44.4929 523.189 44.489C523.19 44.4851 523.191 44.4812 523.192 44.4773C523.193 44.4734 523.194 44.4694 523.195 44.4655C523.196 44.4616 523.197 44.4577 523.198 44.4538C523.199 44.4499 523.2 44.446 523.201 44.4421C523.202 44.4382 523.203 44.4343 523.204 44.4304C523.205 44.4265 523.206 44.4226 523.207 44.4187C523.208 44.4148 523.209 44.4109 523.21 44.4069C523.211 44.403 523.212 44.3991 523.213 44.3952C523.214 44.3913 523.215 44.3874 523.216 44.3835C523.217 44.3796 523.218 44.3757 523.219 44.3718C523.22 44.3679 523.221 44.364 523.222 44.3601C523.223 44.3562 523.223 44.3523 523.224 44.3484C523.225 44.3444 523.226 44.3405 523.227 44.3366C523.228 44.3327 523.229 44.3288 523.23 44.3249C523.231 44.321 523.232 44.3171 523.233 44.3132C523.234 44.3093 523.235 44.3054 523.236 44.3015C523.237 44.2976 523.238 44.2937 523.239 44.2898C523.24 44.2859 523.241 44.2819 523.242 44.278C523.243 44.2741 523.244 44.2702 523.245 44.2663C523.246 44.2624 523.247 44.2585 523.248 44.2546C523.249 44.2507 523.25 44.2468 523.251 44.2429C523.252 44.239 523.253 44.2351 523.254 44.2312C523.255 44.2273 523.256 44.2234 523.257 44.2194C523.258 44.2155 523.259 44.2116 523.26 44.2077C523.261 44.2038 523.262 44.1999 523.263 44.196C523.264 44.1921 523.265 44.1882 523.265 44.1843C523.266 44.1804 523.267 44.1765 523.268 44.1726C523.269 44.1687 523.27 44.1648 523.271 44.1609C523.272 44.1569 523.273 44.153 523.274 44.1491C523.275 44.1452 523.276 44.1413 523.277 44.1374C523.278 44.1335 523.279 44.1296 523.28 44.1257C523.281 44.1218 523.282 44.1179 523.283 44.114C523.284 44.1101 523.285 44.1062 523.286 44.1023C523.287 44.0984 523.288 44.0944 523.289 44.0905C523.29 44.0866 523.291 44.0827 523.292 44.0788C523.293 44.0749 523.294 44.071 523.295 44.0671C523.296 44.0632 523.297 44.0593 523.298 44.0554C523.299 44.0515 523.3 44.0476 523.301 44.0437C523.302 44.0398 523.303 44.0359 523.304 44.0319C523.305 44.028 523.306 44.0241 523.306 44.0202C523.307 44.0163 523.308 44.0124 523.309 44.0085C523.31 44.0046 523.311 44.0007 523.312 43.9968C523.313 43.9929 523.314 43.989 523.315 43.9851C523.316 43.9812 523.317 43.9773 523.318 43.9734C523.319 43.9694 523.32 43.9655 523.321 43.9616C523.322 43.9577 523.323 43.9538 523.324 43.9499C523.325 43.946 523.326 43.9421 523.327 43.9382C523.328 43.9343 523.329 43.9304 523.33 43.9265C523.331 43.9226 523.332 43.9187 523.333 43.9148C523.334 43.9109 523.335 43.9069 523.336 43.903C523.337 43.8991 523.338 43.8952 523.339 43.8913C523.34 43.8874 523.341 43.8835 523.342 43.8796C523.343 43.8757 523.344 43.8718 523.345 43.8679C523.346 43.864 523.347 43.8601 523.348 43.8562C523.348 43.8523 523.349 43.8484 523.35 43.8444C523.351 43.8405 523.352 43.8366 523.353 43.8327C523.354 43.8288 523.355 43.8249 523.356 43.821C523.357 43.8171 523.358 43.8132 523.359 43.8093C523.36 43.8054 523.361 43.8015 523.362 43.7976C523.363 43.7937 523.364 43.7898 523.365 43.7859C523.366 43.7819 523.367 43.778 523.368 43.7741C523.369 43.7702 523.37 43.7663 523.371 43.7624C523.372 43.7585 523.373 43.7546 523.374 43.7507C523.375 43.7468 523.376 43.7429 523.377 43.739C523.378 43.7351 523.379 43.7312 523.38 43.7273C523.381 43.7234 523.382 43.7194 523.383 43.7155C523.384 43.7116 523.385 43.7077 523.386 43.7038C523.387 43.6999 523.388 43.696 523.389 43.6921C523.39 43.6882 523.39 43.6843 523.391 43.6804C523.392 43.6765 523.393 43.6726 523.394 43.6687C523.395 43.6648 523.396 43.6609 523.397 43.6569C523.398 43.653 523.399 43.6491 523.4 43.6452C523.401 43.6413 523.402 43.6374 523.403 43.6335C523.404 43.6296 523.405 43.6257 523.406 43.6218C523.407 43.6179 523.408 43.614 523.409 43.6101C523.41 43.6062 523.411 43.6023 523.412 43.5984C523.413 43.5944 523.414 43.5905 523.415 43.5866C523.416 43.5827 523.417 43.5788 523.418 43.5749C523.419 43.571 523.42 43.5671 523.421 43.5632C523.422 43.5593 523.423 43.5554 523.424 43.5515C523.425 43.5476 523.426 43.5437 523.427 43.5398C523.428 43.5359 523.429 43.5319 523.43 43.528C523.431 43.5241 523.431 43.5202 523.432 43.5163C523.433 43.5124 523.434 43.5085 523.435 43.5046C523.436 43.5007 523.437 43.4968 523.438 43.4929C523.439 43.489 523.44 43.4851 523.441 43.4812C523.442 43.4773 523.443 43.4734 523.444 43.4694C523.445 43.4655 523.446 43.4616 523.447 43.4577C523.448 43.4538 523.449 43.4499 523.45 43.446C523.451 43.4421 523.452 43.4382 523.453 43.4343C523.454 43.4304 523.455 43.4265 523.456 43.4226C523.457 43.4187 523.458 43.4148 523.459 43.4109C523.46 43.4069 523.461 43.403 523.462 43.3991C523.463 43.3952 523.464 43.3913 523.465 43.3874C523.466 43.3835 523.467 43.3796 523.468 43.3757C523.469 43.3718 523.47 43.3679 523.471 43.364C523.472 43.3601 523.473 43.3562 523.473 43.3523C523.474 43.3484 523.475 43.3444 523.476 43.3405C523.477 43.3366 523.478 43.3327 523.479 43.3288C523.48 43.3249 523.481 43.321 523.482 43.3171C523.483 43.3132 523.484 43.3093 523.485 43.3054C523.486 43.3015 523.487 43.2976 523.488 43.2937C523.489 43.2898 523.49 43.2859 523.491 43.2819C523.492 43.278 523.493 43.2741 523.494 43.2702C523.495 43.2663 523.496 43.2624 523.497 43.2585C523.498 43.2546 523.499 43.2507 523.5 43.2468C523.501 43.2429 523.502 43.239 523.503 43.2351C523.504 43.2312 523.505 43.2273 523.506 43.2234C523.507 43.2194 523.508 43.2155 523.509 43.2116C523.51 43.2077 523.511 43.2038 523.512 43.1999C523.513 43.196 523.514 43.1921 523.515 43.1882C523.515 43.1843 523.516 43.1804 523.517 43.1765C523.518 43.1726 523.519 43.1687 523.52 43.1648C523.521 43.1609 523.522 43.1569 523.523 43.153C523.524 43.1491 523.525 43.1452 523.526 43.1413C523.527 43.1374 523.528 43.1335 523.529 43.1296C523.53 43.1257 523.531 43.1218 523.532 43.1179C523.533 43.114 523.534 43.1101 523.535 43.1062C523.536 43.1023 523.537 43.0984 523.538 43.0944C523.539 43.0905 523.54 43.0866 523.541 43.0827C523.542 43.0788 523.543 43.0749 523.544 43.071C523.545 43.0671 523.546 43.0632 523.547 43.0593C523.548 43.0554 523.549 43.0515 523.55 43.0476C523.551 43.0437 523.552 43.0398 523.553 43.0359C523.554 43.0319 523.555 43.028 523.556 43.0241C523.556 43.0202 523.557 43.0163 523.558 43.0124C523.559 43.0085 523.56 43.0046 523.561 43.0007C523.562 42.9968 523.563 42.9929 523.564 42.989C523.565 42.9851 523.566 42.9812 523.567 42.9773C523.568 42.9734 523.569 42.9694 523.57 42.9655C523.571 42.9616 523.572 42.9577 523.573 42.9538C523.574 42.9499 523.575 42.946 523.576 42.9421C523.577 42.9382 523.578 42.9343 523.579 42.9304C523.58 42.9265 523.581 42.9226 523.582 42.9187C523.583 42.9148 523.584 42.9109 523.585 42.9069C523.586 42.903 523.587 42.8991 523.588 42.8952C523.589 42.8913 523.59 42.8874 523.591 42.8835C523.592 42.8796 523.593 42.8757 523.594 42.8718C523.595 42.8679 523.596 42.864 523.597 42.8601C523.598 42.8562 523.598 42.8523 523.599 42.8484C523.6 42.8444 523.601 42.8405 523.602 42.8366C523.603 42.8327 523.604 42.8288 523.605 42.8249C523.606 42.821 523.607 42.8171 523.608 42.8132C523.609 42.8093 523.61 42.8054 523.611 42.8015C523.612 42.7976 523.613 42.7937 523.614 42.7898C523.615 42.7859 523.616 42.7819 523.617 42.778C523.618 42.7741 523.619 42.7702 523.62 42.7663C523.621 42.7624 523.622 42.7585 523.623 42.7546C523.624 42.7507 523.625 42.7468 523.626 42.7429C523.627 42.739 523.628 42.7351 523.629 42.7312C523.63 42.7273 523.631 42.7234 523.632 42.7194C523.633 42.7155 523.634 42.7116 523.635 42.7077C523.636 42.7038 523.637 42.6999 523.638 42.696C523.639 42.6921 523.64 42.6882 523.64 42.6843C523.641 42.6804 523.642 42.6765 523.643 42.6726C523.644 42.6687 523.645 42.6648 523.646 42.6609C523.647 42.6569 523.648 42.653 523.649 42.6491C523.65 42.6452 523.651 42.6413 523.652 42.6374C523.653 42.6335 523.654 42.6296 523.655 42.6257C523.656 42.6218 523.657 42.6179 523.658 42.614C523.659 42.6101 523.66 42.6062 523.661 42.6023C523.662 42.5984 523.663 42.5944 523.664 42.5905C523.665 42.5866 523.666 42.5827 523.667 42.5788C523.668 42.5749 523.669 42.571 523.67 42.5671C523.671 42.5632 523.672 42.5593 523.673 42.5554C523.674 42.5515 523.675 42.5476 523.676 42.5437C523.677 42.5398 523.678 42.5359 523.679 42.5319C523.68 42.528 523.681 42.5241 523.681 42.5202C523.682 42.5163 523.683 42.5124 523.684 42.5085C523.685 42.5046 523.686 42.5007 523.687 42.4968C523.688 42.4929 523.689 42.489 523.69 42.4851C523.691 42.4812 523.692 42.4773 523.693 42.4734C523.694 42.4694 523.695 42.4655 523.696 42.4616C523.697 42.4577 523.698 42.4538 523.699 42.4499C523.7 42.446 523.701 42.4421 523.702 42.4382C523.703 42.4343 523.704 42.4304 523.705 42.4265C523.706 42.4226 523.707 42.4187 523.708 42.4148C523.709 42.4109 523.71 42.4069 523.711 42.403C523.712 42.3991 523.713 42.3952 523.714 42.3913C523.715 42.3874 523.716 42.3835 523.717 42.3796C523.718 42.3757 523.719 42.3718 523.72 42.3679C523.721 42.364 523.722 42.3601 523.723 42.3562C523.723 42.3523 523.724 42.3484 523.725 42.3444C523.726 42.3405 523.727 42.3366 523.728 42.3327C523.729 42.3288 523.73 42.3249 523.731 42.321C523.732 42.3171 523.733 42.3132 523.734 42.3093C523.735 42.3054 523.736 42.3015 523.737 42.2976C523.738 42.2937 523.739 42.2898 523.74 42.2859C523.741 42.2819 523.742 42.278 523.743 42.2741C523.744 42.2702 523.745 42.2663 523.746 42.2624C523.747 42.2585 523.748 42.2546 523.749 42.2507C523.75 42.2468 523.751 42.2429 523.752 42.239C523.753 42.2351 523.754 42.2312 523.755 42.2273C523.756 42.2234 523.757 42.2194 523.758 42.2155C523.759 42.2116 523.76 42.2077 523.761 42.2038C523.762 42.1999 523.763 42.196 523.764 42.1921C523.765 42.1882 523.765 42.1843 523.766 42.1804C523.767 42.1765 523.768 42.1726 523.769 42.1687C523.77 42.1648 523.771 42.1609 523.772 42.1569C523.773 42.153 523.774 42.1491 523.775 42.1452C523.776 42.1413 523.777 42.1374 523.778 42.1335C523.779 42.1296 523.78 42.1257 523.781 42.1218C523.782 42.1179 523.783 42.114 523.784 42.1101C523.785 42.1062 523.786 42.1023 523.787 42.0984C523.788 42.0944 523.789 42.0905 523.79 42.0866C523.791 42.0827 523.792 42.0788 523.793 42.0749C523.794 42.071 523.795 42.0671 523.796 42.0632C523.797 42.0593 523.798 42.0554 523.799 42.0515C523.8 42.0476 523.801 42.0437 523.802 42.0398C523.803 42.0359 523.804 42.0319 523.805 42.028C523.806 42.0241 523.806 42.0202 523.807 42.0163C523.808 42.0124 523.809 42.0085 523.81 42.0046C523.811 42.0007 523.812 41.9968 523.813 41.9929C523.814 41.989 523.815 41.9851 523.816 41.9812C523.817 41.9773 523.818 41.9734 523.819 41.9694C523.82 41.9655 523.821 41.9616 523.822 41.9577C523.823 41.9538 523.824 41.9499 523.825 41.946C523.826 41.9421 523.827 41.9382 523.828 41.9343C523.829 41.9304 523.83 41.9265 523.831 41.9226C523.832 41.9187 523.833 41.9148 523.834 41.9109C523.835 41.9069 523.836 41.903 523.837 41.8991C523.838 41.8952 523.839 41.8913 523.84 41.8874C523.841 41.8835 523.842 41.8796 523.843 41.8757C523.844 41.8718 523.845 41.8679 523.846 41.864C523.847 41.8601 523.848 41.8562 523.848 41.8523C523.849 41.8484 523.85 41.8444 523.851 41.8405C523.852 41.8366 523.853 41.8327 523.854 41.8288C523.855 41.8249 523.856 41.821 523.857 41.8171C523.858 41.8132 523.859 41.8093 523.86 41.8054C523.861 41.8015 523.862 41.7976 523.863 41.7937C523.864 41.7898 523.865 41.7859 523.866 41.7819C523.867 41.778 523.868 41.7741 523.869 41.7702C523.87 41.7663 523.871 41.7624 523.872 41.7585C523.873 41.7546 523.874 41.7507 523.875 41.7468C523.876 41.7429 523.877 41.739 523.878 41.7351C523.879 41.7312 523.88 41.7273 523.881 41.7234C523.882 41.7194 523.883 41.7155 523.884 41.7116C523.885 41.7077 523.886 41.7038 523.887 41.6999C523.888 41.696 523.889 41.6921 523.89 41.6882C523.89 41.6843 523.891 41.6804 523.892 41.6765C523.893 41.6726 523.894 41.6687 523.895 41.6648C523.896 41.6609 523.897 41.6569 523.898 41.653C523.899 41.6491 523.9 41.6452 523.901 41.6413C523.902 41.6374 523.903 41.6335 523.904 41.6296C523.905 41.6257 523.906 41.6218 523.907 41.6179C523.908 41.614 523.909 41.6101 523.91 41.6062C523.911 41.6023 523.912 41.5984 523.913 41.5944C523.914 41.5905 523.915 41.5866 523.916 41.5827C523.917 41.5788 523.918 41.5749 523.919 41.571C523.92 41.5671 523.921 41.5632 523.922 41.5593C523.923 41.5554 523.924 41.5515 523.925 41.5476C523.926 41.5437 523.927 41.5398 523.928 41.5359C523.929 41.5319 523.93 41.528 523.931 41.5241C523.931 41.5202 523.932 41.5163 523.933 41.5124C523.934 41.5085 523.935 41.5046 523.936 41.5007C523.937 41.4968 523.938 41.4929 523.939 41.489C523.94 41.4851 523.941 41.4812 523.942 41.4773C523.943 41.4734 523.944 41.4694 523.945 41.4655C523.946 41.4616 523.947 41.4577 523.948 41.4538C523.949 41.4499 523.95 41.446 523.951 41.4421C523.952 41.4382 523.953 41.4343 523.954 41.4304C523.955 41.4265 523.956 41.4226 523.957 41.4187C523.958 41.4148 523.959 41.4109 523.96 41.4069C523.961 41.403 523.962 41.3991 523.963 41.3952C523.964 41.3913 523.965 41.3874 523.966 41.3835C523.967 41.3796 523.968 41.3757 523.969 41.3718C523.97 41.3679 523.971 41.364 523.972 41.3601C523.973 41.3562 523.973 41.3523 523.974 41.3484C523.975 41.3444 523.976 41.3405 523.977 41.3366C523.978 41.3327 523.979 41.3288 523.98 41.3249C523.981 41.321 523.982 41.3171 523.983 41.3132C523.984 41.3093 523.985 41.3054 523.986 41.3015C523.987 41.2976 523.988 41.2937 523.989 41.2898C523.99 41.2859 523.991 41.2819 523.992 41.278C523.993 41.2741 523.994 41.2702 523.995 41.2663C523.996 41.2624 523.997 41.2585 523.998 41.2546C523.999 41.2507 524 41.2468 524.001 41.2429C524.002 41.239 524.003 41.2351 524.004 41.2312C524.005 41.2273 524.006 41.2234 524.007 41.2194C524.008 41.2155 524.009 41.2116 524.01 41.2077C524.011 41.2038 524.012 41.1999 524.013 41.196C524.014 41.1921 524.015 41.1882 524.015 41.1843C524.016 41.1804 524.017 41.1765 524.018 41.1726C524.019 41.1687 524.02 41.1648 524.021 41.1609C524.022 41.1569 524.023 41.153 524.024 41.1491C524.025 41.1452 524.026 41.1413 524.027 41.1374C524.028 41.1335 524.029 41.1296 524.03 41.1257C524.031 41.1218 524.032 41.1179 524.033 41.114C524.034 41.1101 524.035 41.1062 524.036 41.1023C524.037 41.0984 524.038 41.0944 524.039 41.0905C524.04 41.0866 524.041 41.0827 524.042 41.0788C524.043 41.0749 524.044 41.071 524.045 41.0671C524.046 41.0632 524.047 41.0593 524.048 41.0554C524.049 41.0515 524.05 41.0476 524.051 41.0437C524.052 41.0398 524.053 41.0359 524.054 41.0319C524.055 41.028 524.056 41.0241 524.056 41.0202C524.057 41.0163 524.058 41.0124 524.059 41.0085C524.06 41.0046 524.061 41.0007 524.062 40.9968C524.063 40.9929 524.064 40.989 524.065 40.9851C524.066 40.9812 524.067 40.9773 524.068 40.9734C524.069 40.9694 524.07 40.9655 524.071 40.9616C524.072 40.9577 524.073 40.9538 524.074 40.9499C524.075 40.946 524.076 40.9421 524.077 40.9382C524.078 40.9343 524.079 40.9304 524.08 40.9265C524.081 40.9226 524.082 40.9187 524.083 40.9148C524.084 40.9109 524.085 40.9069 524.086 40.903C524.087 40.8991 524.088 40.8952 524.089 40.8913C524.09 40.8874 524.091 40.8835 524.092 40.8796C524.093 40.8757 524.094 40.8718 524.095 40.8679C524.096 40.864 524.097 40.8601 524.098 40.8562C524.098 40.8523 524.099 40.8484 524.1 40.8444C524.101 40.8405 524.102 40.8366 524.103 40.8327C524.104 40.8288 524.105 40.8249 524.106 40.821C524.107 40.8171 524.108 40.8132 524.109 40.8093C524.11 40.8054 524.111 40.8015 524.112 40.7976C524.113 40.7937 524.114 40.7898 524.115 40.7859C524.116 40.7819 524.117 40.778 524.118 40.7741C524.119 40.7702 524.12 40.7663 524.121 40.7624C524.122 40.7585 524.123 40.7546 524.124 40.7507C524.125 40.7468 524.126 40.7429 524.127 40.739C524.128 40.7351 524.129 40.7312 524.13 40.7273C524.131 40.7234 524.132 40.7194 524.133 40.7155C524.134 40.7116 524.135 40.7077 524.136 40.7038C524.137 40.6999 524.138 40.696 524.139 40.6921C524.14 40.6882 524.14 40.6843 524.141 40.6804C524.142 40.6765 524.143 40.6726 524.144 40.6687C524.145 40.6648 524.146 40.6609 524.147 40.6569C524.148 40.653 524.149 40.6491 524.15 40.6452C524.151 40.6413 524.152 40.6374 524.153 40.6335C524.154 40.6296 524.155 40.6257 524.156 40.6218C524.157 40.6179 524.158 40.614 524.159 40.6101C524.16 40.6062 524.161 40.6023 524.162 40.5984C524.163 40.5944 524.164 40.5905 524.165 40.5866C524.166 40.5827 524.167 40.5788 524.168 40.5749C524.169 40.571 524.17 40.5671 524.171 40.5632C524.172 40.5593 524.173 40.5554 524.174 40.5515C524.175 40.5476 524.176 40.5437 524.177 40.5398C524.178 40.5359 524.179 40.5319 524.18 40.528C524.181 40.5241 524.181 40.5202 524.182 40.5163C524.183 40.5124 524.184 40.5085 524.185 40.5046C524.186 40.5007 524.187 40.4968 524.188 40.4929C524.189 40.489 524.19 40.4851 524.191 40.4812C524.192 40.4773 524.193 40.4734 524.194 40.4694C524.195 40.4655 524.196 40.4616 524.197 40.4577C524.198 40.4538 524.199 40.4499 524.2 40.446C524.201 40.4421 524.202 40.4382 524.203 40.4343C524.204 40.4304 524.205 40.4265 524.206 40.4226C524.207 40.4187 524.208 40.4148 524.209 40.4109C524.21 40.4069 524.211 40.403 524.212 40.3991C524.213 40.3952 524.214 40.3913 524.215 40.3874C524.216 40.3835 524.217 40.3796 524.218 40.3757C524.219 40.3718 524.22 40.3679 524.221 40.364C524.222 40.3601 524.223 40.3562 524.223 40.3523C524.224 40.3484 524.225 40.3444 524.226 40.3405C524.227 40.3366 524.228 40.3327 524.229 40.3288C524.23 40.3249 524.231 40.321 524.232 40.3171C524.233 40.3132 524.234 40.3093 524.235 40.3054C524.236 40.3015 524.237 40.2976 524.238 40.2937C524.239 40.2898 524.24 40.2859 524.241 40.2819C524.242 40.278 524.243 40.2741 524.244 40.2702C524.245 40.2663 524.246 40.2624 524.247 40.2585C524.248 40.2546 524.249 40.2507 524.25 40.2468C524.251 40.2429 524.252 40.239 524.253 40.2351C524.254 40.2312 524.255 40.2273 524.256 40.2234C524.257 40.2194 524.258 40.2155 524.259 40.2116C524.26 40.2077 524.261 40.2038 524.262 40.1999C524.263 40.196 524.264 40.1921 524.265 40.1882C524.265 40.1843 524.266 40.1804 524.267 40.1765C524.268 40.1726 524.269 40.1687 524.27 40.1648C524.271 40.1609 524.272 40.1569 524.273 40.153C524.274 40.1491 524.275 40.1452 524.276 40.1413C524.277 40.1374 524.278 40.1335 524.279 40.1296C524.28 40.1257 524.281 40.1218 524.282 40.1179C524.283 40.114 524.284 40.1101 524.285 40.1062C524.286 40.1023 524.287 40.0984 524.288 40.0944C524.289 40.0905 524.29 40.0866 524.291 40.0827C524.292 40.0788 524.293 40.0749 524.294 40.071C524.295 40.0671 524.296 40.0632 524.297 40.0593C524.298 40.0554 524.299 40.0515 524.3 40.0476C524.301 40.0437 524.302 40.0398 524.303 40.0359C524.304 40.0319 524.305 40.028 524.306 40.0241C524.306 40.0202 524.307 40.0163 524.308 40.0124C524.309 40.0085 524.31 40.0046 524.311 40.0007C524.312 39.9968 524.313 39.9929 524.314 39.989C524.315 39.9851 524.316 39.9812 524.317 39.9773C524.318 39.9734 524.319 39.9694 524.32 39.9655C524.321 39.9616 524.322 39.9577 524.323 39.9538C524.324 39.9499 524.325 39.946 524.326 39.9421C524.327 39.9382 524.328 39.9343 524.329 39.9304C524.33 39.9265 524.331 39.9226 524.332 39.9187C524.333 39.9148 524.334 39.9109 524.335 39.9069C524.336 39.903 524.337 39.8991 524.338 39.8952C524.339 39.8913 524.34 39.8874 524.341 39.8835C524.342 39.8796 524.343 39.8757 524.344 39.8718C524.345 39.8679 524.346 39.864 524.347 39.8601C524.348 39.8562 524.348 39.8523 524.349 39.8484C524.35 39.8444 524.351 39.8405 524.352 39.8366C524.353 39.8327 524.354 39.8288 524.355 39.8249C524.356 39.821 524.357 39.8171 524.358 39.8132C524.359 39.8093 524.36 39.8054 524.361 39.8015C524.362 39.7976 524.363 39.7937 524.364 39.7898C524.365 39.7859 524.366 39.7819 524.367 39.778C524.368 39.7741 524.369 39.7702 524.37 39.7663C524.371 39.7624 524.372 39.7585 524.373 39.7546C524.374 39.7507 524.375 39.7468 524.376 39.7429C524.377 39.739 524.378 39.7351 524.379 39.7312C524.38 39.7273 524.381 39.7234 524.382 39.7194C524.383 39.7155 524.384 39.7116 524.385 39.7077C524.386 39.7038 524.387 39.6999 524.388 39.696C524.389 39.6921 524.39 39.6882 524.39 39.6843C524.391 39.6804 524.392 39.6765 524.393 39.6726C524.394 39.6687 524.395 39.6648 524.396 39.6609C524.397 39.6569 524.398 39.653 524.399 39.6491C524.4 39.6452 524.401 39.6413 524.402 39.6374C524.403 39.6335 524.404 39.6296 524.405 39.6257C524.406 39.6218 524.407 39.6179 524.408 39.614C524.409 39.6101 524.41 39.6062 524.411 39.6023C524.412 39.5984 524.413 39.5944 524.414 39.5905C524.415 39.5866 524.416 39.5827 524.417 39.5788C524.418 39.5749 524.419 39.571 524.42 39.5671C524.421 39.5632 524.422 39.5593 524.423 39.5554C524.424 39.5515 524.425 39.5476 524.426 39.5437C524.427 39.5398 524.428 39.5359 524.429 39.5319C524.43 39.528 524.431 39.5241 524.431 39.5202C524.432 39.5163 524.433 39.5124 524.434 39.5085C524.435 39.5046 524.436 39.5007 524.437 39.4968C524.438 39.4929 524.439 39.489 524.44 39.4851L520.56 38.5149ZM519.07 44.4738C517.555 50.0299 516.576 53.9524 515.435 57.6616L519.258 58.8375C520.424 55.0476 521.445 50.9701 522.93 45.5262L519.07 44.4738ZM515.436 57.6587L487.589 147.714L491.411 148.896L519.258 58.8404L515.436 57.6587ZM557.419 147.743L531.056 57.6877L527.217 58.8115L553.581 148.867L557.419 147.743ZM531.056 57.6897C529.896 53.7115 528.729 48.9136 527.557 43.2874L523.642 44.1031C524.828 49.7969 526.018 54.7019 527.216 58.8095L531.056 57.6897ZM527.547 43.2392C526.471 38.643 526.94 40.5127 526.44 38.5149L522.56 39.4851C523.06 41.4873 522.529 39.357 523.652 44.1512L527.547 43.2392ZM524.5 37H522.5V41H524.5V37ZM94.5 188H77V192H94.5V188ZM77 188H59V192H77V188ZM489.5 150.305H525.599V146.305H489.5V150.305ZM525.599 150.305H555.5V146.305H525.599V150.305Z" fill="black"/>
</svg>
