<svg width="350" height="350" viewBox="0 0 350 350" fill="none" xmlns="http://www.w3.org/2000/svg">
<path d="M122.354 38.8489L115.529 48.0986V102.57V154.831V182.58V246.866L112.604 210.329L105.78 182.58L88.7186 184.43L79.4568 206.167L93.5933 274.152L115.529 299.127L134.053 318.089H212.047L233.496 299.127L242.27 283.504L256.407 229.856L263.231 200.257L266.643 169.733L260.794 157.708L249.095 154.831L237.396 166.393L233.496 141.419L220.822 138.644L209.123 141.419L199.373 159.918L193.524 135.869L180.85 132.169L166.713 133.556L157.451 166.393L153.551 48.0986L147.702 37.4614L135.515 34.6865L122.354 38.8489Z" fill="white" stroke="black" stroke-width="8"/>
<path d="M157.451 193.217L158.426 276.465" stroke="black" stroke-width="8"/>
<path d="M198.31 188.592L188.649 280.165" stroke="black" stroke-width="8"/>
<path d="M229.771 201.45L215.947 280.165" stroke="black" stroke-width="8"/>
</svg>
