<svg width="600" height="400" viewBox="0 0 600 400" fill="none" xmlns="http://www.w3.org/2000/svg">
<path d="M411.93 62.5505L404.782 71.7741V126.091V178.204V205.875V269.979L401.718 233.546L394.57 205.875L376.701 207.72L367 229.395L381.806 297.188L404.782 322.092L424.183 341H505.873L528.338 322.092L537.528 306.514L552.335 253.017L559.482 223.502L563.056 193.064L556.93 181.073L544.676 178.204L532.423 189.734L528.338 164.83L515.063 162.063L502.81 164.83L492.599 183.277L486.472 159.296L473.197 155.606L458.391 156.99L448.69 189.734L444.606 71.7741L438.479 61.167L425.715 58.3999L411.93 62.5505Z" fill="white" stroke="black" stroke-width="8"/>
<path d="M448.69 216.482L449.711 299.494" stroke="black" stroke-width="8"/>
<path d="M491.485 211.87L481.366 303.183" stroke="black" stroke-width="8"/>
<path d="M524.437 224.692L509.958 303.184" stroke="black" stroke-width="8"/>
<path d="M94.25 192.417V173.667H75.5V154.917H56.75V136.167H38V61.1672H75.5V117.417H94.25V136.167H113V117.417H131.75V61.1672H169.25V136.167H150.5V154.917H131.75V173.667H113V192.417H94.25ZM206.75 192.417V173.667H188V117.417H206.75V98.6672H300.5V117.417H319.25V173.667H300.5V192.417H206.75ZM225.5 173.667H281.75V117.417H225.5V173.667ZM94.25 342.417V267.417H56.75V248.667H94.25V211.167H131.75V248.667H169.25V267.417H131.75V342.417H94.25ZM206.75 342.417V323.667H188V304.917H206.75V286.167H281.75V267.417H206.75V248.667H300.5V267.417H319.25V342.417H206.75ZM225.5 323.667H281.75V304.917H225.5V323.667Z" fill="black"/>
</svg>
