<svg width="1100" height="273" viewBox="0 0 1100 273" fill="none" xmlns="http://www.w3.org/2000/svg">
<rect width="662" height="272" fill="black"/>
<path d="M37 43.56H72.136L110.152 173.448H111.304L148.744 43.56H181.864L126.568 225H92.296L37 43.56Z" fill="white"/>
<path d="M266.228 40.104C290.228 40.104 308.756 47.976 321.812 63.72C335.06 79.272 341.684 102.792 341.684 134.28C341.684 165.576 335.06 189.096 321.812 204.84C308.756 220.392 290.228 228.168 266.228 228.168C242.228 228.168 223.604 220.392 210.356 204.84C197.3 189.096 190.772 165.576 190.772 134.28C190.772 102.984 197.3 79.464 210.356 63.72C223.604 47.976 242.228 40.104 266.228 40.104ZM266.228 69.192C252.98 69.192 242.9 74.376 235.988 84.744C229.268 94.92 225.908 109.224 225.908 127.656V140.904C225.908 159.336 229.268 173.64 235.988 183.816C242.9 193.992 252.98 199.08 266.228 199.08C279.476 199.08 289.556 193.992 296.468 183.816C303.38 173.64 306.836 159.336 306.836 140.904V127.656C306.836 109.224 303.38 94.92 296.468 84.744C289.556 74.376 279.476 69.192 266.228 69.192Z" fill="white"/>
<path d="M434.107 73.512V225H400.411V73.512H355.483V43.56H479.323V73.512H434.107Z" fill="white"/>
<path d="M589.699 225L578.755 189.288H511.651L500.707 225H467.875L526.339 43.56H565.795L624.259 225H589.699ZM544.483 73.8C544.291 75.528 543.715 79.176 542.755 84.744C541.795 90.312 540.739 94.824 539.587 98.28L520.867 159.048H569.539L551.107 98.28C549.955 94.44 548.803 89.832 547.651 84.456C546.499 79.08 545.827 75.528 545.635 73.8H544.483Z" fill="white"/>
<path d="M676 190.272H712.288V226.56H676V190.272Z" fill="black"/>
<path d="M781.973 84C797.717 84 809.525 87.552 817.397 94.656C825.269 101.76 829.205 111.84 829.205 124.896V193.728C829.205 196.8 829.877 199.104 831.221 200.64C832.757 202.176 834.581 202.944 836.693 202.944H843.029V225.408C838.037 228.288 831.701 229.728 824.021 229.728C817.877 229.728 812.597 228.096 808.181 224.832C803.957 221.376 801.077 216.96 799.541 211.584H798.389C793.973 217.728 789.077 222.336 783.701 225.408C778.517 228.288 771.605 229.728 762.965 229.728C754.133 229.728 746.069 226.848 738.773 221.088C731.477 215.136 727.829 204.96 727.829 190.56C727.829 172.704 733.877 160.128 745.973 152.832C758.069 145.536 775.157 141.888 797.237 141.888V127.488C797.237 121.92 796.181 117.6 794.069 114.528C791.957 111.456 788.117 109.92 782.549 109.92C776.789 109.92 772.565 111.456 769.877 114.528C767.381 117.408 766.133 120.768 766.133 124.608V128.64H734.741C734.549 127.68 734.453 125.664 734.453 122.592C734.453 111.072 738.773 101.76 747.413 94.656C756.053 87.552 767.573 84 781.973 84ZM797.237 164.928C772.853 164.928 760.661 172.512 760.661 187.68C760.661 198.048 765.845 203.232 776.213 203.232C783.317 203.232 788.597 200.448 792.053 194.88C795.509 189.12 797.237 181.824 797.237 172.992V164.928Z" fill="black"/>
<path d="M921.925 84C936.133 84 947.173 90.048 955.045 102.144C962.917 114.24 966.853 132.576 966.853 157.152C966.853 181.344 962.917 199.488 955.045 211.584C947.173 223.68 936.805 229.728 923.941 229.728C916.837 229.728 910.405 228.192 904.645 225.12C899.077 222.048 895.045 217.728 892.549 212.16H891.397V272.352H859.717V87.168H885.925L889.381 104.448H890.533C893.989 97.728 898.405 92.64 903.781 89.184C909.349 85.728 915.397 84 921.925 84ZM912.421 113.088C904.933 113.088 899.557 116.352 896.293 122.88C893.029 129.408 891.397 139.104 891.397 151.968V161.472C891.397 174.528 893.029 184.416 896.293 191.136C899.557 197.664 904.933 200.928 912.421 200.928C919.909 200.928 925.285 197.664 928.549 191.136C932.005 184.608 933.733 174.816 933.733 161.76V151.968C933.733 138.912 932.005 129.216 928.549 122.88C925.285 116.352 919.909 113.088 912.421 113.088Z" fill="black"/>
<path d="M1054.68 84C1068.88 84 1079.92 90.048 1087.8 102.144C1095.67 114.24 1099.6 132.576 1099.6 157.152C1099.6 181.344 1095.67 199.488 1087.8 211.584C1079.92 223.68 1069.56 229.728 1056.69 229.728C1049.59 229.728 1043.15 228.192 1037.39 225.12C1031.83 222.048 1027.8 217.728 1025.3 212.16H1024.15V272.352H992.467V87.168H1018.67L1022.13 104.448H1023.28C1026.74 97.728 1031.16 92.64 1036.53 89.184C1042.1 85.728 1048.15 84 1054.68 84ZM1045.17 113.088C1037.68 113.088 1032.31 116.352 1029.04 122.88C1025.78 129.408 1024.15 139.104 1024.15 151.968V161.472C1024.15 174.528 1025.78 184.416 1029.04 191.136C1032.31 197.664 1037.68 200.928 1045.17 200.928C1052.66 200.928 1058.04 197.664 1061.3 191.136C1064.76 184.608 1066.48 174.816 1066.48 161.76V151.968C1066.48 138.912 1064.76 129.216 1061.3 122.88C1058.04 116.352 1052.66 113.088 1045.17 113.088Z" fill="black"/>
</svg>
