<svg width="359" height="379" viewBox="0 0 359 379" fill="none" xmlns="http://www.w3.org/2000/svg">
<path d="M125.5 42L118.5 52V110.889V167.389V197.389V266.889L115.5 227.389L108.5 197.389L91 199.389L81.5 222.889L96 296.389L118.5 323.389L137.5 343.889H217.5L239.5 323.389L248.5 306.5L263 248.5L270 216.5L273.5 183.5L267.5 170.5L255.5 167.389L243.5 179.889L239.5 152.889L226.5 149.889L214.5 152.889L204.5 172.889L198.5 146.889L185.5 142.889L171 144.389L161.5 179.889L157.5 52L151.5 40.5L139 37.5L125.5 42Z" fill="white" stroke="black" stroke-width="8"/>
<path d="M161.5 208.889L162.5 298.889" stroke="black" stroke-width="8"/>
<path d="M203.409 203.889L193.5 302.889" stroke="black" stroke-width="8"/>
<path d="M235.679 217.79L221.5 302.889" stroke="black" stroke-width="8"/>
</svg>
