<svg width="601" height="189" viewBox="0 0 601 189" fill="none" xmlns="http://www.w3.org/2000/svg">
<rect width="601" height="188" fill="black"/>
<path d="M0 0H36L74.8636 135.389H76.0426L114.5 0H148L91.5 188H74H56L0 0Z" fill="white"/>
<path d="M234.591 0C259.153 0 278.114 3.28787 291.476 19.8637C305.034 36.2373 311.813 61 311.813 94.1516C311.813 127.101 305.034 151.864 291.476 168.439C278.114 184.813 259.153 188 234.591 188C210.03 188 190.97 184.813 177.412 168.439C164.051 151.864 157.37 127.101 157.37 94.1516C157.37 61.2021 164.051 36.4395 177.412 19.8637C190.97 3.28787 210.03 0 234.591 0ZM234.591 31C221.033 31 212.574 32.5842 205.5 43.5C198.623 54.2136 193.328 67.7718 193.328 87.1776V101.126C193.328 120.531 197.623 135.591 204.5 146.305C211.574 157.018 221.033 158 234.591 158C248.149 158 256.926 157.018 264 146.305C271.074 135.591 276.15 120.531 276.15 101.126V87.1776C276.15 67.7718 271.074 53.2136 264 42.5C256.926 31.5842 248.149 31 234.591 31Z" fill="white"/>
<path d="M406.399 30.173V188H371.914V30.173H325.935V0H452.673V30.173H406.399Z" fill="white"/>
<path d="M565.5 188L554.431 152.066H485.757L474.5 188H441L501 0H541L601 188.5L565.5 188ZM519.357 30.4762C519.161 32.2955 518.571 36.1363 517.589 41.9984C516.606 47.8606 515.526 52.611 514.347 56.2496L495.189 120.228H545L526.136 56.2496C524.957 52.2067 523.778 47.3552 522.599 41.6952C521.421 36.0352 520.733 32.2955 520.536 30.4762H519.357Z" fill="white"/>
</svg>
