<svg width="551" height="533" viewBox="0 0 551 533" fill="none" xmlns="http://www.w3.org/2000/svg">
<rect x="17.5" y="17.5" width="516" height="498" rx="33.5" fill="white" stroke="black" stroke-width="35"/>
<path d="M190.75 257.25V257.75H191.25H210H210.5V257.25V239H228.75H229.25V238.5V220.25H247.5H248V219.75V201.5H266.25H266.75V201V126V125.5H266.25H228.75H228.25V126V181.75H210H209.5V182.25V200.5H191.75V182.25V181.75H191.25H173V126V125.5H172.5H135H134.5V126V201V201.5H135H153.25V219.75V220.25H153.75H172V238.5V239H172.5H190.75V257.25ZM303.25 257.25V257.75H303.75H397.5H398V257.25V239H416.25H416.75V238.5V182.25V181.75H416.25H398V163.5V163H397.5H303.75H303.25V163.5V181.75H285H284.5V182.25V238.5V239H285H303.25V257.25ZM190.75 407.25V407.75H191.25H228.75H229.25V407.25V332.75H266.25H266.75V332.25V313.5V313H266.25H229.25V276V275.5H228.75H191.25H190.75V276V313H153.75H153.25V313.5V332.25V332.75H153.75H190.75V407.25ZM303.25 407.25V407.75H303.75H416.25H416.75V407.25V332.25V331.75H416.25H398V313.5V313H397.5H303.75H303.25V313.5V332.25V332.75H303.75H378.25V350.5H303.75H303.25V351V369.25H285H284.5V369.75V388.5V389H285H303.25V407.25ZM378.25 182.75V238H323V182.75H378.25ZM378.25 370.25V388H323V370.25H378.25Z" fill="black" stroke="black"/>
</svg>
