<svg width="607" height="193" viewBox="0 0 607 193" fill="none" xmlns="http://www.w3.org/2000/svg">
<path d="M3 2H39L77.8636 137.389H79.0426L117.5 2H151L94.5 190H77H59L3 2Z" fill="#F7DF1E"/>
<path d="M237.591 2C262.153 2 281.114 5.28787 294.476 21.8637C308.034 38.2373 314.813 63 314.813 96.1516C314.813 129.101 308.034 153.864 294.476 170.439C281.114 186.813 262.153 190 237.591 190C213.03 190 193.97 186.813 180.412 170.439C167.051 153.864 160.37 129.101 160.37 96.1516C160.37 63.2021 167.051 38.4395 180.412 21.8637C193.97 5.28787 213.03 2 237.591 2ZM237.591 33C224.033 33 215.574 34.5842 208.5 45.5C201.623 56.2136 196.328 69.7718 196.328 89.1776V103.126C196.328 122.531 200.623 137.591 207.5 148.305C214.574 159.018 224.033 160 237.591 160C251.149 160 259.926 159.018 267 148.305C274.074 137.591 279.15 122.531 279.15 103.126V89.1776C279.15 69.7718 274.074 55.2136 267 44.5C259.926 33.5842 251.149 33 237.591 33Z" fill="#F7DF1E"/>
<path d="M409.399 32.173V190H374.914V32.173H328.935V2H455.673V32.173H409.399Z" fill="#F7DF1E"/>
<path d="M568.5 190L564.5 179.5L481.259 178L477.5 190H444L504 2H544L604 190.5L568.5 190ZM522.5 39C522 41 521.5 43 521 45C519.5 50.5 518.5 54.5 517.347 58.2496L489.5 148.305H525.599H555.5L529.136 58.2496C527.957 54.2067 526.778 49.3552 525.599 43.6952C524.5 39 525 41 524.5 39H522.5Z" fill="#F7DF1E"/>
<path d="M3 2H39L77.8636 137.389H79.0426L117.5 2H151L94.5 190H77H59L3 2Z" fill="#F7DF1E"/>
<path d="M237.591 2C262.153 2 281.114 5.28787 294.476 21.8637C308.034 38.2373 314.813 63 314.813 96.1516C314.813 129.101 308.034 153.864 294.476 170.439C281.114 186.813 262.153 190 237.591 190C213.03 190 193.97 186.813 180.412 170.439C167.051 153.864 160.37 129.101 160.37 96.1516C160.37 63.2021 167.051 38.4395 180.412 21.8637C193.97 5.28787 213.03 2 237.591 2ZM237.591 33C224.033 33 215.574 34.5842 208.5 45.5C201.623 56.2136 196.328 69.7718 196.328 89.1776V103.126C196.328 122.531 200.623 137.591 207.5 148.305C214.574 159.018 224.033 160 237.591 160C251.149 160 259.926 159.018 267 148.305C274.074 137.591 279.15 122.531 279.15 103.126V89.1776C279.15 69.7718 274.074 55.2136 267 44.5C259.926 33.5842 251.149 33 237.591 33Z" fill="#F7DF1E"/>
<path d="M409.399 32.173V190H374.914V32.173H328.935V2H455.673V32.173H409.399Z" fill="#F7DF1E"/>
<path d="M568.5 190L564.5 179.5L481.259 178L477.5 190H444L504 2H544L604 190.5L568.5 190ZM522.5 39C522 41 521.5 43 521 45C519.5 50.5 518.5 54.5 517.347 58.2496L489.5 148.305H525.599H555.5L529.136 58.2496C527.957 54.2067 526.778 49.3552 525.599 43.6952C524.5 39 525 41 524.5 39H522.5Z" fill="#F7DF1E"/>
<path d="M3 2H39L77.8636 137.389H79.0426L117.5 2H151L94.5 190H77H59L3 2ZM237.591 2C262.153 2 281.114 5.28787 294.476 21.8637C308.034 38.2373 314.813 63 314.813 96.1516C314.813 129.101 308.034 153.864 294.476 170.439C281.114 186.813 262.153 190 237.591 190C213.03 190 193.97 186.813 180.412 170.439C167.051 153.864 160.37 129.101 160.37 96.1516C160.37 63.2021 167.051 38.4395 180.412 21.8637C193.97 5.28787 213.03 2 237.591 2ZM237.591 33C224.033 33 215.574 34.5842 208.5 45.5C201.623 56.2136 196.328 69.7718 196.328 89.1776V103.126C196.328 122.531 200.623 137.591 207.5 148.305C214.574 159.018 224.033 160 237.591 160C251.149 160 259.926 159.018 267 148.305C274.074 137.591 279.15 122.531 279.15 103.126V89.1776C279.15 69.7718 274.074 55.2136 267 44.5C259.926 33.5842 251.149 33 237.591 33ZM409.399 32.173V190H374.914V32.173H328.935V2H455.673V32.173H409.399ZM568.5 190L564.5 179.5L481.259 178L477.5 190H444L504 2H544L604 190.5L568.5 190ZM522.5 39C522 41 521.5 43 521 45C519.5 50.5 518.5 54.5 517.347 58.2496L489.5 148.305H525.599H555.5L529.136 58.2496C527.957 54.2067 526.778 49.3552 525.599 43.6952C524.5 39 525 41 524.5 39H522.5Z" stroke="black" stroke-width="4"/>
</svg>
