<svg width="601" height="190" viewBox="0 0 601 190" fill="none" xmlns="http://www.w3.org/2000/svg">
<rect y="1" width="601" height="188" fill="black"/>
<path d="M0 1H36L74.8636 136.389H76.0426L114.5 1H148L91.5 189H74H56L0 1Z" fill="#F7DF1E"/>
<path d="M234.591 0C259.153 0 278.114 4.28787 291.476 20.8637C305.034 37.2373 311.813 62 311.813 95.1516C311.813 128.101 305.034 152.864 291.476 169.439C278.114 185.813 259.153 190 234.591 190C210.03 190 190.97 185.813 177.412 169.439C164.051 152.864 157.37 128.101 157.37 95.1516C157.37 62.2021 164.051 37.4395 177.412 20.8637C190.97 4.28787 210.03 0 234.591 0ZM234.591 31C221.033 31 212.574 33.5842 205.5 44.5C198.623 55.2136 193.328 68.7718 193.328 88.1776V102.126C193.328 121.531 197.623 136.591 204.5 147.305C211.574 158.018 221.033 159.5 234.591 159.5C248.149 159.5 256.926 158.018 264 147.305C271.074 136.591 276.15 121.531 276.15 102.126V88.1776C276.15 68.7718 271.074 54.2136 264 43.5C256.926 32.5842 248.149 31 234.591 31Z" fill="#F7DF1E"/>
<path d="M406.399 31.173V190H371.914V31.173H325.935V0H452.673V31.173H406.399Z" fill="#F7DF1E"/>
<path d="M563 190H475.5H441L500.5 0.5H540.5L594 190H563ZM537.5 190C531.5 190 533.411 190.002 531.5 190C523 190 524.5 190 516.5 190H475.5H563H557C551.5 190 557 190 551.5 190C540 190 544.5 190.002 542.5 190H537.5Z" fill="#F7DF1E"/>
</svg>
